<svg width="17" height="24" viewBox="0 0 17 24" fill="none" xmlns="http://www.w3.org/2000/svg">
<path d="M8.50001 0.388885C6.33696 0.390692 4.2625 1.24839 2.72974 2.77465C1.19698 4.3009 0.330465 6.37169 0.319458 8.53472C0.319458 11.7778 2.1389 14.4931 3.47224 16.4722L3.71529 16.8333C5.04187 18.756 6.46499 20.6102 7.97918 22.3889L8.50696 23.0069L9.03474 22.3889C10.5487 20.6101 11.9718 18.7558 13.2986 16.8333L13.5417 16.4653C14.8681 14.4861 16.6875 11.7778 16.6875 8.53472C16.6765 6.37049 15.809 4.29865 14.2748 2.7722C12.7405 1.24574 10.6643 0.388857 8.50001 0.388885ZM8.50001 12.1944C7.59901 12.1944 6.71824 11.9273 5.96908 11.4267C5.21993 10.9261 4.63603 10.2146 4.29123 9.38222C3.94643 8.5498 3.85622 7.63383 4.03199 6.75014C4.20777 5.86645 4.64164 5.05473 5.27875 4.41762C5.91586 3.78052 6.72758 3.34664 7.61127 3.17086C8.49496 2.99509 9.41093 3.0853 10.2434 3.4301C11.0758 3.7749 11.7872 4.3588 12.2878 5.10795C12.7884 5.85711 13.0556 6.73788 13.0556 7.63889C13.0556 8.84709 12.5756 10.0058 11.7213 10.8601C10.8669 11.7145 9.70822 12.1944 8.50001 12.1944Z" fill="#1E92E7"/>
</svg>
